<svg xmlns="http://www.w3.org/2000/svg" viewBox="0 0 1024 1024" role="img" aria-label="Paper eraser">
  <defs>
    <filter id="paper-shadow" x="-20%" y="-20%" width="140%" height="140%">
      <feDropShadow dx="0" dy="12" stdDeviation="10" flood-color="#000" flood-opacity=".16"/>
    </filter>
  </defs>
  <g filter="url(#paper-shadow)">
    <path d="M231 383 687 263c74-19 142 26 157 101l32 158c15 76-34 150-110 166L315 785c-73 16-144-30-159-103l-29-143c-15-73 31-137 104-156z" fill="#fff" stroke="#fff" stroke-width="92" stroke-linejoin="round"/>
    <path d="M231 383 687 263c74-19 142 26 157 101l32 158c15 76-34 150-110 166L315 785c-73 16-144-30-159-103l-29-143c-15-73 31-137 104-156z" fill="#ffd6dc" stroke="#2e2117" stroke-width="22" stroke-linejoin="round"/>
    <path d="m503 312 188-49c74-19 142 26 157 101l32 158c15 76-34 150-110 166l-185 40z" fill="#73bfd0" stroke="#2e2117" stroke-width="20" stroke-linejoin="round"/>
    <path d="m238 526 273-69" fill="none" stroke="#f49bab" stroke-width="24" stroke-linecap="round"/>
  </g>
</svg>
