<svg xmlns="http://www.w3.org/2000/svg" viewBox="0 0 1024 1024" role="img" aria-label="Paper lunchbox">
  <defs>
    <filter id="paper-shadow" x="-20%" y="-20%" width="140%" height="140%">
      <feDropShadow dx="0" dy="12" stdDeviation="10" flood-color="#000" flood-opacity=".16"/>
    </filter>
  </defs>
  <g filter="url(#paper-shadow)">
    <path d="M323 367c16-98 74-149 189-149 113 0 174 51 189 149h-78c-13-49-48-73-111-73-65 0-101 24-112 73z" fill="#fff" stroke="#fff" stroke-width="92" stroke-linejoin="round"/>
    <rect x="226" y="357" width="572" height="376" rx="70" fill="#fff" stroke="#fff" stroke-width="92" stroke-linejoin="round"/>
    <path d="M323 367c16-98 74-149 189-149 113 0 174 51 189 149h-78c-13-49-48-73-111-73-65 0-101 24-112 73z" fill="#f2b84b" stroke="#2e2117" stroke-width="22" stroke-linejoin="round"/>
    <rect x="226" y="357" width="572" height="376" rx="70" fill="#62b8c8" stroke="#2e2117" stroke-width="22" stroke-linejoin="round"/>
    <path d="M226 477h572" fill="none" stroke="#2e2117" stroke-width="18" stroke-linecap="round"/>
    <rect x="468" y="425" width="88" height="84" rx="18" fill="#f8df76" stroke="#2e2117" stroke-width="16"/>
    <circle cx="342" cy="608" r="38" fill="#f07f6e" stroke="#2e2117" stroke-width="14"/>
    <circle cx="682" cy="608" r="38" fill="#f07f6e" stroke="#2e2117" stroke-width="14"/>
  </g>
</svg>
