<svg xmlns="http://www.w3.org/2000/svg" viewBox="0 0 1024 1024" role="img" aria-label="Paper paintbrush">
  <defs>
    <filter id="paper-shadow" x="-20%" y="-20%" width="140%" height="140%">
      <feDropShadow dx="0" dy="12" stdDeviation="10" flood-color="#000" flood-opacity=".16"/>
    </filter>
  </defs>
  <g filter="url(#paper-shadow)">
    <path d="M185 729 654 260c46-46 107-60 174-42 24 6 39 31 33 55-18 67-32 128-78 174L314 916c-27 27-72 27-99 0l-30-30c-44-44-44-114 0-157z" fill="#fff" stroke="#fff" stroke-width="92" stroke-linejoin="round"/>
    <path d="M185 729 654 260l110 110-469 469c-30 30-80 30-110 0s-30-80 0-110z" fill="#f0c05d" stroke="#2e2117" stroke-width="22" stroke-linejoin="round"/>
    <path d="M654 260c46-46 107-60 174-42 24 6 39 31 33 55-18 67-32 128-78 174l-19-77z" fill="#39445f" stroke="#2e2117" stroke-width="22" stroke-linejoin="round"/>
    <path d="m598 316 110 110" fill="none" stroke="#2e2117" stroke-width="20" stroke-linecap="round"/>
    <path d="M180 816c37 7 68-2 95-29" fill="none" stroke="#d78d3d" stroke-width="22" stroke-linecap="round"/>
  </g>
</svg>
