<svg xmlns="http://www.w3.org/2000/svg" viewBox="0 0 1600 1000" role="img" aria-label="Paper picnic park">
  <rect width="1600" height="1000" fill="#a9daf4"/>
  <circle cx="1320" cy="155" r="86" fill="#ffd65c" stroke="#2e3d28" stroke-width="10"/>
  <rect y="430" width="1600" height="570" fill="#86cc68"/>
  <path d="M0 515 C260 430 460 565 710 490 C1010 400 1230 520 1600 455 L1600 1000 L0 1000Z" fill="#6fbf58"/>
  <path d="M190 635 L585 570 L680 785 L230 875Z" fill="#f9e8dc" stroke="#2e3d28" stroke-width="10"/>
  <path d="M190 635 L585 570" stroke="#e65b4f" stroke-width="20"/>
  <path d="M320 612 L720 708" stroke="#e65b4f" stroke-width="18"/>
  <path d="M1060 650 L1420 590 L1480 765 L1090 855Z" fill="#f9e8dc" stroke="#2e3d28" stroke-width="10"/>
  <path d="M1060 650 L1420 590" stroke="#4f86d9" stroke-width="20"/>
  <path d="M1160 625 L1510 720" stroke="#4f86d9" stroke-width="18"/>
  <path d="M120 475 C125 390 210 360 260 428 C305 335 430 350 448 452 C555 440 575 560 468 575 L190 575 C130 570 98 525 120 475Z" fill="#f5fbf4" opacity="0.88"/>
  <path d="M240 420 C260 300 370 250 480 300 C520 190 710 200 735 340 C840 320 925 405 890 515 L250 515 C210 488 205 452 240 420Z" fill="#f5fbf4" opacity="0.8"/>
</svg>
