<svg xmlns="http://www.w3.org/2000/svg" viewBox="0 0 1024 1024" role="img" aria-label="Paper birthday candle">
  <defs>
    <filter id="paper-shadow" x="-20%" y="-20%" width="140%" height="140%">
      <feDropShadow dx="0" dy="12" stdDeviation="10" flood-color="#000" flood-opacity=".16"/>
    </filter>
  </defs>
  <g filter="url(#paper-shadow)">
    <path d="M429 290c0-82 83-105 83-170 0 65 83 88 83 170 0 45-37 82-83 82s-83-37-83-82z" fill="#fff" stroke="#fff" stroke-width="92" stroke-linejoin="round"/>
    <rect x="405" y="344" width="214" height="452" rx="46" fill="#fff" stroke="#fff" stroke-width="92" stroke-linejoin="round"/>
    <path d="M429 290c0-82 83-105 83-170 0 65 83 88 83 170 0 45-37 82-83 82s-83-37-83-82z" fill="#ffb34f" stroke="#2e2117" stroke-width="22" stroke-linejoin="round"/>
    <path d="M492 280c0-42 31-60 31-94 30 42 39 71 22 104-14 28-53 23-53-10z" fill="#ffe985"/>
    <rect x="405" y="344" width="214" height="452" rx="46" fill="#6fb7dc" stroke="#2e2117" stroke-width="22" stroke-linejoin="round"/>
    <path d="M416 444h191M416 544h191M416 644h191" fill="none" stroke="#fff1a8" stroke-width="28" stroke-linecap="round"/>
  </g>
</svg>
