<svg xmlns="http://www.w3.org/2000/svg" viewBox="0 0 1024 1024" role="img" aria-label="Paper ice cream cone">
  <defs>
    <filter id="paper-shadow" x="-20%" y="-20%" width="140%" height="140%">
      <feDropShadow dx="0" dy="12" stdDeviation="10" flood-color="#000" flood-opacity=".16"/>
    </filter>
  </defs>
  <g filter="url(#paper-shadow)">
    <path d="M295 424c-5-23-8-47-8-72 0-126 101-228 225-228s225 102 225 228c0 25-3 49-8 72h29c49 0 77 56 48 96L563 854c-25 35-77 35-102 0L218 520c-29-40-1-96 48-96z" fill="#fff" stroke="#fff" stroke-width="92" stroke-linejoin="round"/>
    <path d="M262 486h500L555 846c-20 35-70 35-90 0z" fill="#e8b56a" stroke="#2e2117" stroke-width="22" stroke-linejoin="round"/>
    <path d="M287 352c0-126 101-228 225-228s225 102 225 228c0 62-25 118-65 159H352c-40-41-65-97-65-159z" fill="#f39abd" stroke="#2e2117" stroke-width="22" stroke-linejoin="round"/>
    <path d="m367 575 237 144M656 575 420 719" fill="none" stroke="#ba7b42" stroke-width="18" stroke-linecap="round"/>
    <circle cx="442" cy="297" r="24" fill="#fff4a1"/>
    <circle cx="568" cy="230" r="20" fill="#74bfd0"/>
    <circle cx="621" cy="352" r="22" fill="#f3d65b"/>
  </g>
</svg>
